<svg width="20" height="20" viewBox="0 0 20 20" fill="none" xmlns="http://www.w3.org/2000/svg">
<g clip-path="url(#clip0_316_480)">
<path d="M16.2728 19.2C15.0795 20.252 13.7628 20.088 12.5077 19.592C11.1734 19.086 9.95358 19.054 8.54441 19.592C6.78955 20.28 5.85817 20.08 4.80129 19.2C-1.16568 13.62 -0.284949 5.12 6.4967 4.8C8.14147 4.88 9.29303 5.626 10.2618 5.688C11.7018 5.422 13.0802 4.66001 14.6215 4.76001C16.4732 4.896 17.8582 5.56 18.7829 6.754C14.9738 8.83399 15.8765 13.394 19.3752 14.674C18.6751 16.344 17.7767 17.994 16.2706 19.214L16.2728 19.2ZM10.1297 4.74001C9.95138 2.26001 12.1642 0.220019 14.7095 0.0200195C15.0596 2.88001 11.8472 5.02 10.1297 4.74001Z" fill="#101623"/>
</g>
<defs>
<clipPath id="clip0_316_480">
<rect width="18.5394" height="20" fill="white" transform="translate(0.816406)"/>
</clipPath>
</defs>
</svg>
