<svg width="23" height="20" viewBox="0 0 23 20" fill="none" xmlns="http://www.w3.org/2000/svg">
<path d="M22.367 10.225C22.367 9.56671 22.3027 8.94171 22.1927 8.33337H11.8257V12.0917H17.7615C17.4954 13.325 16.7156 14.3667 15.5596 15.075V17.575H19.1009C21.1743 15.8334 22.367 13.2667 22.367 10.225Z" fill="#4285F4"/>
<path d="M11.8257 20C14.7982 20 17.2844 19.1 19.1009 17.575L15.5596 15.075C14.5688 15.675 13.3119 16.0417 11.8257 16.0417C8.95413 16.0417 6.52294 14.2833 5.65138 11.9083H2V14.4833C3.80734 17.75 7.52294 20 11.8257 20Z" fill="#34A853"/>
<path d="M5.65127 11.9083C5.42191 11.3083 5.30264 10.6666 5.30264 9.99993C5.30264 9.33327 5.43109 8.6916 5.65127 8.0916V5.5166H1.99989C1.2476 6.8666 0.816406 8.38327 0.816406 9.99993C0.816406 11.6166 1.2476 13.1333 1.99989 14.4833L5.65127 11.9083Z" fill="#FBBC05"/>
<path d="M11.8257 3.95833C13.4495 3.95833 14.8991 4.46667 16.0459 5.45834L19.1835 2.60833C17.2844 0.991668 14.7982 0 11.8257 0C7.52294 0 3.80734 2.25 2 5.51667L5.65138 8.09167C6.52294 5.71667 8.95413 3.95833 11.8257 3.95833Z" fill="#EA4335"/>
</svg>
