<svg width="328" height="64" viewBox="0 0 328 64" fill="none" xmlns="http://www.w3.org/2000/svg">
<rect x="0.75" y="0.75" width="62.5" height="62.5" rx="15.25" fill="white" stroke="#99BF80" stroke-width="1.5"/>
<path d="M27.4684 41L34.7042 26.6818V26.5625H26.2752V23.5455H38.5224V26.6051L31.2781 41H27.4684Z" fill="#101623"/>
<rect x="88.75" y="0.75" width="62.5" height="62.5" rx="9.25" fill="white" stroke="#99BF80" stroke-width="1.5"/>
<path d="M113.856 41V38.3409L120.069 32.5881C120.598 32.0767 121.041 31.6165 121.399 31.2074C121.762 30.7983 122.038 30.3977 122.225 30.0057C122.413 29.608 122.507 29.179 122.507 28.7188C122.507 28.2074 122.39 27.767 122.157 27.3977C121.924 27.0227 121.606 26.7358 121.203 26.5369C120.799 26.3324 120.342 26.2301 119.831 26.2301C119.297 26.2301 118.831 26.3381 118.433 26.554C118.035 26.7699 117.728 27.0795 117.512 27.483C117.297 27.8864 117.189 28.3665 117.189 28.9233H113.686C113.686 27.7812 113.944 26.7898 114.461 25.9489C114.978 25.108 115.703 24.4574 116.635 23.9972C117.566 23.5369 118.64 23.3068 119.856 23.3068C121.106 23.3068 122.194 23.5284 123.12 23.9716C124.052 24.4091 124.777 25.017 125.294 25.7955C125.811 26.5739 126.069 27.4659 126.069 28.4716C126.069 29.1307 125.939 29.7812 125.677 30.4233C125.422 31.0653 124.964 31.7784 124.305 32.5625C123.646 33.3409 122.717 34.2756 121.518 35.3665L118.97 37.8636V37.983H126.299V41H113.856Z" fill="#101623"/>
<rect x="176.75" y="0.75" width="62.5" height="62.5" rx="15.25" fill="white" stroke="#99BF80" stroke-width="1.5"/>
<path d="M207.956 41.2386C206.684 41.2386 205.55 41.0199 204.556 40.5824C203.567 40.1392 202.786 39.5312 202.212 38.7585C201.644 37.9801 201.351 37.0824 201.334 36.0653H205.05C205.073 36.4915 205.212 36.8665 205.468 37.1903C205.729 37.5085 206.076 37.7557 206.507 37.9318C206.939 38.108 207.425 38.196 207.965 38.196C208.527 38.196 209.025 38.0966 209.456 37.8977C209.888 37.6989 210.226 37.4233 210.471 37.071C210.715 36.7187 210.837 36.3125 210.837 35.8523C210.837 35.3864 210.706 34.9744 210.445 34.6165C210.189 34.2528 209.82 33.9687 209.337 33.7642C208.86 33.5597 208.292 33.4574 207.632 33.4574H206.005V30.7472H207.632C208.189 30.7472 208.681 30.6506 209.107 30.4574C209.539 30.2642 209.874 29.9972 210.113 29.6562C210.351 29.3097 210.471 28.9062 210.471 28.446C210.471 28.0085 210.365 27.625 210.155 27.2955C209.951 26.9602 209.661 26.6989 209.286 26.5114C208.917 26.3239 208.485 26.2301 207.99 26.2301C207.49 26.2301 207.033 26.321 206.618 26.5028C206.203 26.679 205.871 26.9318 205.621 27.2614C205.371 27.5909 205.238 27.9773 205.221 28.4205H201.684C201.701 27.4148 201.988 26.5284 202.544 25.7614C203.101 24.9943 203.851 24.3949 204.794 23.9631C205.743 23.5256 206.814 23.3068 208.007 23.3068C209.212 23.3068 210.266 23.5256 211.169 23.9631C212.073 24.4006 212.775 24.9915 213.275 25.7358C213.78 26.4744 214.03 27.304 214.025 28.2244C214.03 29.2017 213.726 30.017 213.113 30.6705C212.505 31.3239 211.712 31.7386 210.735 31.9148V32.0511C212.019 32.2159 212.996 32.6619 213.667 33.3892C214.343 34.1108 214.678 35.0142 214.672 36.0994C214.678 37.0938 214.391 37.9773 213.811 38.75C213.238 39.5227 212.445 40.1307 211.434 40.5739C210.422 41.017 209.263 41.2386 207.956 41.2386Z" fill="#101623"/>
<rect x="264" width="64" height="64" rx="16" fill="#F9FAFB"/>
<line x1="295.5" y1="42.0238" x2="295.5" y2="21" stroke="black"/>
</svg>
