<svg width="50" height="50" viewBox="0 0 50 50" fill="none" xmlns="http://www.w3.org/2000/svg">
<rect width="50" height="50" rx="8" fill="#F9FAFB"/>
<path fill-rule="evenodd" clip-rule="evenodd" d="M17 16C16.4477 16 16 16.4477 16 17V23.5C16 25.7033 17.0374 27.778 18.8 29.1L22.6 31.95C24.0222 33.0167 25.9778 33.0167 27.4 31.95L27.761 31.6792C28.2014 32.2319 28.8055 32.6484 29.5 32.8551V32.875L28.6 33.55C26.4667 35.15 23.5333 35.15 21.4 33.55L17.6 30.7C15.3337 29.0003 14 26.3328 14 23.5V17C14 15.3431 15.3431 14 17 14H33C34.6569 14 36 15.3431 36 17V23.5C36 25.5889 35.2747 27.588 33.9851 29.1753C33.9103 28.3612 33.5565 27.6278 33.0204 27.0715C33.6534 26.0043 34 24.7736 34 23.5V17C34 16.4477 33.5523 16 33 16H17ZM31.738 28.6528C32.2442 28.1875 32.6749 27.6538 33.0204 27.0715C32.3837 26.4109 31.4899 26 30.5 26C28.567 26 27 27.567 27 29.5C27 30.3239 27.2847 31.0813 27.761 31.6792L29.3626 30.478C29.6377 30.7976 30.0452 31 30.5 31C31.3284 31 32 30.3284 32 29.5C32 29.1857 31.9033 28.8939 31.738 28.6528ZM31.738 28.6528C31.5672 28.8099 31.3877 28.9592 31.2 29.1L29.3626 30.478C29.1366 30.2154 29 29.8737 29 29.5C29 28.6716 29.6716 28 30.5 28C31.0141 28 31.4678 28.2586 31.738 28.6528ZM33.9851 29.1753C33.995 29.2822 34 29.3905 34 29.5C34 31.0855 32.9457 32.4248 31.5 32.8551V35.3333H29.5V32.875L32.4 30.7C32.9951 30.2537 33.5259 29.7406 33.9851 29.1753ZM26.25 22.5C26.25 23.1904 25.6904 23.75 25 23.75C24.3096 23.75 23.75 23.1904 23.75 22.5C23.75 21.8096 24.3096 21.25 25 21.25C25.6904 21.25 26.25 21.8096 26.25 22.5ZM21.25 23.75C21.9404 23.75 22.5 23.1904 22.5 22.5C22.5 21.8096 21.9404 21.25 21.25 21.25C20.5596 21.25 20 21.8096 20 22.5C20 23.1904 20.5596 23.75 21.25 23.75ZM30 22.5C30 23.1904 29.4404 23.75 28.75 23.75C28.0596 23.75 27.5 23.1904 27.5 22.5C27.5 21.8096 28.0596 21.25 28.75 21.25C29.4404 21.25 30 21.8096 30 22.5Z" fill="#99BF80"/>
</svg>
