<svg width="50" height="50" viewBox="0 0 50 50" fill="none" xmlns="http://www.w3.org/2000/svg">
<rect width="50" height="50" rx="8" fill="#F9FAFB"/>
<path d="M15 25.5C15 23.6144 15 22.6716 15.5858 22.0858C16.1716 21.5 17.1144 21.5 19 21.5H31C32.8856 21.5 33.8284 21.5 34.4142 22.0858C35 22.6716 35 23.6144 35 25.5V30.5C35 33.3284 35 34.7426 34.1213 35.6213C33.2426 36.5 31.8284 36.5 29 36.5H21C18.1716 36.5 16.7574 36.5 15.8787 35.6213C15 34.7426 15 33.3284 15 30.5V25.5Z" stroke="#99BF80" stroke-width="2"/>
<path d="M30 20.25V19C30 16.2386 27.7614 14 25 14V14C22.2386 14 20 16.2386 20 19V20.25" stroke="#99BF80" stroke-width="2" stroke-linecap="round"/>
<circle cx="25" cy="29" r="1.5" fill="#99BF80" stroke="#99BF80" stroke-width="2"/>
</svg>
