<svg width="60" height="19" viewBox="0 0 60 19" fill="none" xmlns="http://www.w3.org/2000/svg">
<path d="M15.8722 5.688C19.7362 5.688 21.7043 8.472 21.7043 11.784V18H18.2962V12.36C18.2962 10.536 17.5043 9 15.6322 9C13.7842 9 12.9922 10.512 12.9922 12.312V18H9.58425V12.336C9.58425 10.512 8.79225 9 6.94425 9C5.04825 9 4.30425 10.536 4.30425 12.336V18H0.896249V11.784C0.896249 8.472 2.84025 5.688 6.68025 5.688C8.96025 5.688 10.6163 6.696 11.3122 8.328C12.0563 6.696 13.7362 5.688 15.8722 5.688ZM24.9281 18.312C21.2321 18.312 18.4481 15.744 18.4481 11.952C18.4481 8.52 20.9441 5.688 24.6161 5.688C28.3841 5.688 30.5681 8.472 30.5681 11.712V12.72H21.7361C21.9761 14.304 23.2001 15.36 24.9041 15.36C26.2001 15.36 27.2801 14.736 27.8321 13.632L30.4481 14.952C29.4161 17.088 27.4481 18.312 24.9281 18.312ZM21.8801 10.824H27.1841C27.0401 9.6 26.0321 8.664 24.5921 8.664C23.1041 8.664 22.1201 9.624 21.8801 10.824ZM33.3757 18.336C29.7277 18.336 26.9437 15.504 26.9437 12.072C26.9437 8.376 29.4877 5.784 33.1837 5.784C34.3837 5.784 35.5357 6.216 36.3997 6.912L36.4237 0.647999H39.8317V12.072C39.8317 15.672 37.0957 18.336 33.3757 18.336ZM33.3757 15.12C35.1277 15.12 36.4237 13.752 36.4237 12.072C36.4237 10.392 35.1277 9 33.3757 9C31.6237 9 30.3517 10.392 30.3517 12.072C30.3517 13.752 31.6237 15.12 33.3757 15.12ZM39.3484 4.344C38.1964 4.344 37.2364 3.408 37.2364 2.232C37.2364 1.08 38.1964 0.119998 39.3484 0.119998C40.5004 0.119998 41.4364 1.08 41.4364 2.232C41.4364 3.408 40.5004 4.344 39.3484 4.344ZM37.6444 6.12H41.0524V18H37.6444V6.12ZM41.1671 16.032L37.5431 6.12H41.1671L44.2871 14.976L47.3831 6.12H51.0071L47.3351 16.032C46.7591 17.568 45.7271 18.336 44.2631 18.336C42.8231 18.336 41.7191 17.568 41.1671 16.032ZM44.2631 15.072C44.2871 15.072 44.2871 15.072 44.2871 15.072H44.2631ZM52.1231 18.312C48.6671 18.312 46.2431 15.48 46.2431 12.024C46.2431 8.616 49.0271 5.76 52.6751 5.76C56.3951 5.76 59.1311 8.448 59.1311 12.024V18H55.8911V16.608C55.0511 17.664 53.7551 18.312 52.1231 18.312ZM52.6751 15.12C54.4271 15.12 55.7231 13.728 55.7231 12.048C55.7231 10.368 54.4271 8.976 52.6751 8.976C50.9231 8.976 49.6511 10.368 49.6511 12.048C49.6511 13.728 50.9231 15.12 52.6751 15.12Z" fill="#518C26"/>
</svg>
