<svg width="98" height="31" viewBox="0 0 98 31" fill="none" xmlns="http://www.w3.org/2000/svg">
<path d="M25.4538 9.48C31.8938 9.48 35.1738 14.12 35.1738 19.64V30H29.4938V20.6C29.4938 17.56 28.1738 15 25.0538 15C21.9738 15 20.6538 17.52 20.6538 20.52V30H14.9738V20.56C14.9738 17.52 13.6538 15 10.5738 15C7.41375 15 6.17375 17.56 6.17375 20.56V30H0.49375V19.64C0.49375 14.12 3.73375 9.48 10.1338 9.48C13.9338 9.48 16.6938 11.16 17.8538 13.88C19.0938 11.16 21.8938 9.48 25.4538 9.48ZM40.5469 30.52C34.3869 30.52 29.7469 26.24 29.7469 19.92C29.7469 14.2 33.9069 9.48 40.0269 9.48C46.3069 9.48 49.9469 14.12 49.9469 19.52V21.2H35.2269C35.6269 23.84 37.6669 25.6 40.5069 25.6C42.6669 25.6 44.4669 24.56 45.3869 22.72L49.7469 24.92C48.0269 28.48 44.7469 30.52 40.5469 30.52ZM35.4669 18.04H44.3069C44.0669 16 42.3869 14.44 39.9869 14.44C37.5069 14.44 35.8669 16.04 35.4669 18.04ZM54.6262 30.56C48.5462 30.56 43.9062 25.84 43.9062 20.12C43.9062 13.96 48.1462 9.64 54.3062 9.64C56.3062 9.64 58.2262 10.36 59.6662 11.52L59.7062 1.08H65.3862V20.12C65.3862 26.12 60.8262 30.56 54.6262 30.56ZM54.6262 25.2C57.5462 25.2 59.7062 22.92 59.7062 20.12C59.7062 17.32 57.5462 15 54.6262 15C51.7062 15 49.5862 17.32 49.5862 20.12C49.5862 22.92 51.7062 25.2 54.6262 25.2ZM64.5806 7.24C62.6606 7.24 61.0606 5.68 61.0606 3.72C61.0606 1.8 62.6606 0.199997 64.5806 0.199997C66.5006 0.199997 68.0606 1.8 68.0606 3.72C68.0606 5.68 66.5006 7.24 64.5806 7.24ZM61.7406 10.2H67.4206V30H61.7406V10.2ZM67.6119 26.72L61.5719 10.2H67.6119L72.8119 24.96L77.9719 10.2H84.0119L77.8919 26.72C76.9319 29.28 75.2119 30.56 72.7719 30.56C70.3719 30.56 68.5319 29.28 67.6119 26.72ZM72.7719 25.12C72.8119 25.12 72.8119 25.12 72.8119 25.12H72.7719ZM85.8719 30.52C80.1119 30.52 76.0719 25.8 76.0719 20.04C76.0719 14.36 80.7119 9.6 86.7919 9.6C92.9919 9.6 97.5519 14.08 97.5519 20.04V30H92.1519V27.68C90.7519 29.44 88.5919 30.52 85.8719 30.52ZM86.7919 25.2C89.7119 25.2 91.8719 22.88 91.8719 20.08C91.8719 17.28 89.7119 14.96 86.7919 14.96C83.8719 14.96 81.7519 17.28 81.7519 20.08C81.7519 22.88 83.8719 25.2 86.7919 25.2Z" fill="#518C26"/>
</svg>
