<svg width="56" height="56" viewBox="0 0 56 56" fill="none" xmlns="http://www.w3.org/2000/svg">
<path fill-rule="evenodd" clip-rule="evenodd" d="M28 49C39.598 49 49 39.598 49 28C49 23.2318 47.4109 18.8348 44.7333 15.3097L27.0217 34.9893C26.329 35.7589 25.1635 35.8726 24.3351 35.2513L15.7333 28.8C15.2915 28.4686 15.202 27.8418 15.5333 27.4C15.8647 26.9582 16.4915 26.8686 16.9333 27.2L25.5351 33.6513L43.436 13.7615C39.599 9.60392 34.1036 7 28 7C16.402 7 7 16.402 7 28C7 39.598 16.402 49 28 49Z" fill="#99BF80"/>
</svg>
