<svg width="287" height="10" viewBox="0 0 287 10" fill="none" xmlns="http://www.w3.org/2000/svg">
<line y1="5.5812" x2="129.88" y2="5.5812" stroke="#BFBFBF" stroke-width="0.4775"/>
<line x1="153.752" y1="5.58132" x2="286.497" y2="5.58132" stroke="#BFBFBF" stroke-width="0.4775"/>
<path d="M139.372 9.084C138.596 9.084 137.888 8.904 137.248 8.544C136.608 8.176 136.1 7.668 135.724 7.02C135.356 6.364 135.172 5.628 135.172 4.812C135.172 3.996 135.356 3.264 135.724 2.616C136.1 1.96 136.608 1.452 137.248 1.092C137.888 0.724 138.596 0.539999 139.372 0.539999C140.156 0.539999 140.868 0.724 141.508 1.092C142.148 1.452 142.652 1.956 143.02 2.604C143.388 3.252 143.572 3.988 143.572 4.812C143.572 5.636 143.388 6.372 143.02 7.02C142.652 7.668 142.148 8.176 141.508 8.544C140.868 8.904 140.156 9.084 139.372 9.084ZM139.372 8.136C139.956 8.136 140.48 8 140.944 7.728C141.416 7.456 141.784 7.068 142.048 6.564C142.32 6.06 142.456 5.476 142.456 4.812C142.456 4.14 142.32 3.556 142.048 3.06C141.784 2.556 141.42 2.168 140.956 1.896C140.492 1.624 139.964 1.488 139.372 1.488C138.78 1.488 138.252 1.624 137.788 1.896C137.324 2.168 136.956 2.556 136.684 3.06C136.42 3.556 136.288 4.14 136.288 4.812C136.288 5.476 136.42 6.06 136.684 6.564C136.956 7.068 137.324 7.456 137.788 7.728C138.26 8 138.788 8.136 139.372 8.136ZM149.418 9L147.426 5.58H146.106V9H145.014V0.636H147.714C148.346 0.636 148.878 0.744 149.31 0.96C149.75 1.176 150.078 1.468 150.294 1.836C150.51 2.204 150.618 2.624 150.618 3.096C150.618 3.672 150.45 4.18 150.114 4.62C149.786 5.06 149.29 5.352 148.626 5.496L150.726 9H149.418ZM146.106 4.704H147.714C148.306 4.704 148.75 4.56 149.046 4.272C149.342 3.976 149.49 3.584 149.49 3.096C149.49 2.6 149.342 2.216 149.046 1.944C148.758 1.672 148.314 1.536 147.714 1.536H146.106V4.704Z" fill="#626161"/>
</svg>
