<svg width="328" height="52" viewBox="0 0 328 52" fill="none" xmlns="http://www.w3.org/2000/svg">
<g clip-path="url(#clip0_81_1740)">
<rect width="328" height="52" rx="26" fill="#EEEEEE"/>
<rect width="164" height="52" rx="26" fill="#2E2E2E"/>
<path d="M64.854 23.668C64.854 24.1627 64.7373 24.6293 64.504 25.068C64.2707 25.5067 63.8973 25.866 63.384 26.146C62.8707 26.4167 62.2127 26.552 61.41 26.552H59.646V30.5H58.05V20.77H61.41C62.1567 20.77 62.7867 20.9007 63.3 21.162C63.8227 21.414 64.21 21.7593 64.462 22.198C64.7233 22.6367 64.854 23.1267 64.854 23.668ZM61.41 25.25C62.0167 25.25 62.4693 25.1147 62.768 24.844C63.0667 24.564 63.216 24.172 63.216 23.668C63.216 22.604 62.614 22.072 61.41 22.072H59.646V25.25H61.41ZM65.8442 26.608C65.8442 25.8333 66.0028 25.1473 66.3202 24.55C66.6468 23.9527 67.0855 23.4907 67.6362 23.164C68.1962 22.828 68.8122 22.66 69.4842 22.66C70.0908 22.66 70.6182 22.7813 71.0662 23.024C71.5235 23.2573 71.8875 23.5513 72.1582 23.906V22.786H73.7682V30.5H72.1582V29.352C71.8875 29.716 71.5188 30.0193 71.0522 30.262C70.5855 30.5047 70.0535 30.626 69.4562 30.626C68.7935 30.626 68.1868 30.458 67.6362 30.122C67.0855 29.7767 66.6468 29.3007 66.3202 28.694C66.0028 28.078 65.8442 27.3827 65.8442 26.608ZM72.1582 26.636C72.1582 26.104 72.0462 25.642 71.8222 25.25C71.6075 24.858 71.3228 24.5593 70.9682 24.354C70.6135 24.1487 70.2308 24.046 69.8202 24.046C69.4095 24.046 69.0268 24.1487 68.6722 24.354C68.3175 24.55 68.0282 24.844 67.8042 25.236C67.5895 25.6187 67.4822 26.076 67.4822 26.608C67.4822 27.14 67.5895 27.6067 67.8042 28.008C68.0282 28.4093 68.3175 28.7173 68.6722 28.932C69.0362 29.1373 69.4188 29.24 69.8202 29.24C70.2308 29.24 70.6135 29.1373 70.9682 28.932C71.3228 28.7267 71.6075 28.428 71.8222 28.036C72.0462 27.6347 72.1582 27.168 72.1582 26.636ZM77.7265 24.088V28.358C77.7265 28.6473 77.7918 28.8573 77.9225 28.988C78.0625 29.1093 78.2958 29.17 78.6225 29.17H79.6025V30.5H78.3425C77.6238 30.5 77.0731 30.332 76.6905 29.996C76.3078 29.66 76.1165 29.114 76.1165 28.358V24.088H75.2065V22.786H76.1165V20.868H77.7265V22.786H79.6025V24.088H77.7265ZM81.8854 21.764C81.5961 21.764 81.3534 21.666 81.1574 21.47C80.9614 21.274 80.8634 21.0313 80.8634 20.742C80.8634 20.4527 80.9614 20.21 81.1574 20.014C81.3534 19.818 81.5961 19.72 81.8854 19.72C82.1654 19.72 82.4034 19.818 82.5994 20.014C82.7954 20.21 82.8934 20.4527 82.8934 20.742C82.8934 21.0313 82.7954 21.274 82.5994 21.47C82.4034 21.666 82.1654 21.764 81.8854 21.764ZM82.6694 22.786V30.5H81.0734V22.786H82.6694ZM91.8348 26.454C91.8348 26.7433 91.8162 27.0047 91.7788 27.238H85.8848C85.9315 27.854 86.1602 28.3487 86.5708 28.722C86.9815 29.0953 87.4855 29.282 88.0828 29.282C88.9415 29.282 89.5482 28.9227 89.9028 28.204H91.6248C91.3915 28.9133 90.9668 29.4967 90.3508 29.954C89.7442 30.402 88.9882 30.626 88.0828 30.626C87.3455 30.626 86.6828 30.4627 86.0948 30.136C85.5162 29.8 85.0588 29.3333 84.7228 28.736C84.3962 28.1293 84.2328 27.4293 84.2328 26.636C84.2328 25.8427 84.3915 25.1473 84.7088 24.55C85.0355 23.9433 85.4882 23.4767 86.0668 23.15C86.6548 22.8233 87.3268 22.66 88.0828 22.66C88.8108 22.66 89.4595 22.8187 90.0288 23.136C90.5982 23.4533 91.0415 23.9013 91.3588 24.48C91.6762 25.0493 91.8348 25.7073 91.8348 26.454ZM90.1688 25.95C90.1595 25.362 89.9495 24.8907 89.5388 24.536C89.1282 24.1813 88.6195 24.004 88.0128 24.004C87.4622 24.004 86.9908 24.1813 86.5988 24.536C86.2068 24.8813 85.9735 25.3527 85.8988 25.95H90.1688ZM97.2975 22.66C97.9041 22.66 98.4455 22.786 98.9215 23.038C99.4068 23.29 99.7848 23.6633 100.055 24.158C100.326 24.6527 100.461 25.25 100.461 25.95V30.5H98.8795V26.188C98.8795 25.4973 98.7068 24.97 98.3615 24.606C98.0161 24.2327 97.5448 24.046 96.9475 24.046C96.3501 24.046 95.8741 24.2327 95.5195 24.606C95.1741 24.97 95.0015 25.4973 95.0015 26.188V30.5H93.4055V22.786H95.0015V23.668C95.2628 23.3507 95.5941 23.1033 95.9955 22.926C96.4061 22.7487 96.8401 22.66 97.2975 22.66ZM104.359 24.088V28.358C104.359 28.6473 104.425 28.8573 104.555 28.988C104.695 29.1093 104.929 29.17 105.255 29.17H106.235V30.5H104.975C104.257 30.5 103.706 30.332 103.323 29.996C102.941 29.66 102.749 29.114 102.749 28.358V24.088H101.839V22.786H102.749V20.868H104.359V22.786H106.235V24.088H104.359Z" fill="#EEEEEE"/>
<rect x="164" width="164" height="52" rx="26" fill="#EEEEEE"/>
<path d="M206.82 20.77V30.5H205.224V26.244H200.646V30.5H199.05V20.77H200.646V24.942H205.224V20.77H206.82ZM215.991 26.454C215.991 26.7433 215.972 27.0047 215.935 27.238H210.041C210.088 27.854 210.316 28.3487 210.727 28.722C211.138 29.0953 211.642 29.282 212.239 29.282C213.098 29.282 213.704 28.9227 214.059 28.204H215.781C215.548 28.9133 215.123 29.4967 214.507 29.954C213.9 30.402 213.144 30.626 212.239 30.626C211.502 30.626 210.839 30.4627 210.251 30.136C209.672 29.8 209.215 29.3333 208.879 28.736C208.552 28.1293 208.389 27.4293 208.389 26.636C208.389 25.8427 208.548 25.1473 208.865 24.55C209.192 23.9433 209.644 23.4767 210.223 23.15C210.811 22.8233 211.483 22.66 212.239 22.66C212.967 22.66 213.616 22.8187 214.185 23.136C214.754 23.4533 215.198 23.9013 215.515 24.48C215.832 25.0493 215.991 25.7073 215.991 26.454ZM214.325 25.95C214.316 25.362 214.106 24.8907 213.695 24.536C213.284 24.1813 212.776 24.004 212.169 24.004C211.618 24.004 211.147 24.1813 210.755 24.536C210.363 24.8813 210.13 25.3527 210.055 25.95H214.325ZM217.03 26.608C217.03 25.8333 217.188 25.1473 217.506 24.55C217.832 23.9527 218.271 23.4907 218.822 23.164C219.382 22.828 219.998 22.66 220.67 22.66C221.276 22.66 221.804 22.7813 222.252 23.024C222.709 23.2573 223.073 23.5513 223.344 23.906V22.786H224.954V30.5H223.344V29.352C223.073 29.716 222.704 30.0193 222.238 30.262C221.771 30.5047 221.239 30.626 220.642 30.626C219.979 30.626 219.372 30.458 218.822 30.122C218.271 29.7767 217.832 29.3007 217.506 28.694C217.188 28.078 217.03 27.3827 217.03 26.608ZM223.344 26.636C223.344 26.104 223.232 25.642 223.008 25.25C222.793 24.858 222.508 24.5593 222.154 24.354C221.799 24.1487 221.416 24.046 221.006 24.046C220.595 24.046 220.212 24.1487 219.858 24.354C219.503 24.55 219.214 24.844 218.99 25.236C218.775 25.6187 218.668 26.076 218.668 26.608C218.668 27.14 218.775 27.6067 218.99 28.008C219.214 28.4093 219.503 28.7173 219.858 28.932C220.222 29.1373 220.604 29.24 221.006 29.24C221.416 29.24 221.799 29.1373 222.154 28.932C222.508 28.7267 222.793 28.428 223.008 28.036C223.232 27.6347 223.344 27.168 223.344 26.636ZM228.646 20.14V30.5H227.05V20.14H228.646ZM232.603 24.088V28.358C232.603 28.6473 232.669 28.8573 232.799 28.988C232.939 29.1093 233.173 29.17 233.499 29.17H234.479V30.5H233.219C232.501 30.5 231.95 30.332 231.567 29.996C231.185 29.66 230.993 29.114 230.993 28.358V24.088H230.083V22.786H230.993V20.868H232.603V22.786H234.479V24.088H232.603ZM239.94 22.66C240.528 22.66 241.051 22.786 241.508 23.038C241.975 23.29 242.339 23.6633 242.6 24.158C242.871 24.6527 243.006 25.25 243.006 25.95V30.5H241.424V26.188C241.424 25.4973 241.252 24.97 240.906 24.606C240.561 24.2327 240.09 24.046 239.492 24.046C238.895 24.046 238.419 24.2327 238.064 24.606C237.719 24.97 237.546 25.4973 237.546 26.188V30.5H235.95V20.14H237.546V23.682C237.817 23.3553 238.158 23.1033 238.568 22.926C238.988 22.7487 239.446 22.66 239.94 22.66ZM244.51 26.636C244.51 25.8427 244.669 25.1473 244.986 24.55C245.313 23.9433 245.761 23.4767 246.33 23.15C246.9 22.8233 247.553 22.66 248.29 22.66C249.224 22.66 249.994 22.884 250.6 23.332C251.216 23.7707 251.632 24.4007 251.846 25.222H250.124C249.984 24.8393 249.76 24.5407 249.452 24.326C249.144 24.1113 248.757 24.004 248.29 24.004C247.637 24.004 247.114 24.2373 246.722 24.704C246.34 25.1613 246.148 25.8053 246.148 26.636C246.148 27.4667 246.34 28.1153 246.722 28.582C247.114 29.0487 247.637 29.282 248.29 29.282C249.214 29.282 249.826 28.876 250.124 28.064H251.846C251.622 28.848 251.202 29.4733 250.586 29.94C249.97 30.3973 249.205 30.626 248.29 30.626C247.553 30.626 246.9 30.4627 246.33 30.136C245.761 29.8 245.313 29.3333 244.986 28.736C244.669 28.1293 244.51 27.4293 244.51 26.636ZM252.905 26.608C252.905 25.8333 253.063 25.1473 253.381 24.55C253.707 23.9527 254.146 23.4907 254.697 23.164C255.257 22.828 255.873 22.66 256.545 22.66C257.151 22.66 257.679 22.7813 258.127 23.024C258.584 23.2573 258.948 23.5513 259.219 23.906V22.786H260.829V30.5H259.219V29.352C258.948 29.716 258.579 30.0193 258.113 30.262C257.646 30.5047 257.114 30.626 256.517 30.626C255.854 30.626 255.247 30.458 254.697 30.122C254.146 29.7767 253.707 29.3007 253.381 28.694C253.063 28.078 252.905 27.3827 252.905 26.608ZM259.219 26.636C259.219 26.104 259.107 25.642 258.883 25.25C258.668 24.858 258.383 24.5593 258.029 24.354C257.674 24.1487 257.291 24.046 256.881 24.046C256.47 24.046 256.087 24.1487 255.733 24.354C255.378 24.55 255.089 24.844 254.865 25.236C254.65 25.6187 254.543 26.076 254.543 26.608C254.543 27.14 254.65 27.6067 254.865 28.008C255.089 28.4093 255.378 28.7173 255.733 28.932C256.097 29.1373 256.479 29.24 256.881 29.24C257.291 29.24 257.674 29.1373 258.029 28.932C258.383 28.7267 258.668 28.428 258.883 28.036C259.107 27.6347 259.219 27.168 259.219 26.636ZM264.521 23.906C264.754 23.514 265.062 23.2107 265.445 22.996C265.837 22.772 266.299 22.66 266.831 22.66V24.312H266.425C265.8 24.312 265.324 24.4707 264.997 24.788C264.68 25.1053 264.521 25.656 264.521 26.44V30.5H262.925V22.786H264.521V23.906ZM275.368 26.454C275.368 26.7433 275.349 27.0047 275.312 27.238H269.418C269.465 27.854 269.693 28.3487 270.104 28.722C270.515 29.0953 271.019 29.282 271.616 29.282C272.475 29.282 273.081 28.9227 273.436 28.204H275.158C274.925 28.9133 274.5 29.4967 273.884 29.954C273.277 30.402 272.521 30.626 271.616 30.626C270.879 30.626 270.216 30.4627 269.628 30.136C269.049 29.8 268.592 29.3333 268.256 28.736C267.929 28.1293 267.766 27.4293 267.766 26.636C267.766 25.8427 267.925 25.1473 268.242 24.55C268.569 23.9433 269.021 23.4767 269.6 23.15C270.188 22.8233 270.86 22.66 271.616 22.66C272.344 22.66 272.993 22.8187 273.562 23.136C274.131 23.4533 274.575 23.9013 274.892 24.48C275.209 25.0493 275.368 25.7073 275.368 26.454ZM273.702 25.95C273.693 25.362 273.483 24.8907 273.072 24.536C272.661 24.1813 272.153 24.004 271.546 24.004C270.995 24.004 270.524 24.1813 270.132 24.536C269.74 24.8813 269.507 25.3527 269.432 25.95H273.702ZM287.379 23.668C287.379 24.1627 287.263 24.6293 287.029 25.068C286.796 25.5067 286.423 25.866 285.909 26.146C285.396 26.4167 284.738 26.552 283.935 26.552H282.171V30.5H280.575V20.77H283.935C284.682 20.77 285.312 20.9007 285.825 21.162C286.348 21.414 286.735 21.7593 286.987 22.198C287.249 22.6367 287.379 23.1267 287.379 23.668ZM283.935 25.25C284.542 25.25 284.995 25.1147 285.293 24.844C285.592 24.564 285.741 24.172 285.741 23.668C285.741 22.604 285.139 22.072 283.935 22.072H282.171V25.25H283.935ZM290.498 23.906C290.731 23.514 291.039 23.2107 291.422 22.996C291.814 22.772 292.276 22.66 292.808 22.66V24.312H292.402C291.776 24.312 291.3 24.4707 290.974 24.788C290.656 25.1053 290.498 25.656 290.498 26.44V30.5H288.902V22.786H290.498V23.906Z" fill="#2E2E2E"/>
</g>
<defs>
<clipPath id="clip0_81_1740">
<rect width="328" height="52" rx="26" fill="white"/>
</clipPath>
</defs>
</svg>
